<svg aria-hidden="true" style="position: absolute; width: 0; height: 0; overflow: hidden;" version="1.1" xmlns="http://www.w3.org/2000/svg" xmlns:xlink="http://www.w3.org/1999/xlink">
<defs>
<symbol id="icon-add-people" viewBox="0 0 32 32">
<path d="M18.529 21.037c-0.782-0.546-1.619-0.991-2.493-1.331 1.163-1.057 1.935-2.539 2.069-4.197 1.764-1.719 4.077-2.661 6.556-2.661 1.935 0 3.793 0.583 5.374 1.685 0.566 0.395 1.345 0.256 1.74-0.31s0.256-1.345-0.31-1.74c-0.782-0.546-1.619-0.99-2.493-1.331 1.284-1.167 2.091-2.849 2.091-4.716 0-3.515-2.859-6.374-6.374-6.374s-6.374 2.859-6.374 6.374c0 1.86 0.801 3.536 2.076 4.702-0.175 0.067-0.348 0.138-0.52 0.214-0.782 0.344-1.518 0.768-2.201 1.265-0.943-2.343-3.239-4.001-5.916-4.001-3.515 0-6.374 2.859-6.374 6.374 0 1.855 0.796 3.526 2.064 4.692-3.39 1.27-6.139 3.999-7.259 7.478-0.371 1.154-0.175 2.377 0.539 3.357s1.818 1.541 3.030 1.541h10.874c0.69 0 1.25-0.56 1.25-1.25s-0.56-1.25-1.25-1.25h-10.874c-0.404 0-0.772-0.187-1.010-0.514s-0.303-0.735-0.18-1.119c1.235-3.841 5.003-6.523 9.162-6.523 1.935 0 3.793 0.583 5.374 1.685 0.566 0.395 1.345 0.256 1.74-0.31s0.256-1.345-0.31-1.74zM24.688 2.562c2.136 0 3.875 1.738 3.875 3.874s-1.738 3.874-3.875 3.874c-2.136 0-3.875-1.738-3.875-3.874s1.738-3.874 3.875-3.874zM11.752 11.116c2.136 0 3.874 1.738 3.874 3.874s-1.738 3.875-3.874 3.875-3.874-1.738-3.874-3.875c0-2.136 1.738-3.874 3.874-3.874zM32 26.122c0 0.69-0.56 1.25-1.25 1.25h-3.437v3.437c0 0.69-0.56 1.25-1.25 1.25s-1.25-0.56-1.25-1.25v-3.437h-3.437c-0.69 0-1.25-0.56-1.25-1.25s0.56-1.25 1.25-1.25h3.437v-3.437c0-0.69 0.56-1.25 1.25-1.25s1.25 0.56 1.25 1.25v3.437h3.437c0.69 0 1.25 0.56 1.25 1.25z"></path>
</symbol>
<symbol id="icon-Arrow" viewBox="0 0 124 32">
<path d="M2.586 14.586c-0.781 0.781-0.781 2.047 0 2.828l12.728 12.728c0.781 0.781 2.047 0.781 2.828 0s0.781-2.047 0-2.828l-11.314-11.314 11.314-11.314c0.781-0.781 0.781-2.047 0-2.828s-2.047-0.781-2.828 0l-12.728 12.728zM124 14h-120v4h120v-4z"></path>
</symbol>
</defs>
</svg>
